<svg xmlns="http://www.w3.org/2000/svg" viewBox="0 0 48 48"><g data-name="21-Gmail"><path d="M44 7H4a4 4 0 0 0-4 4v26a4 4 0 0 0 4 4h40a4 4 0 0 0 4-4V11a4 4 0 0 0-4-4Zm2 30a2 2 0 0 1-2 2H4a2 2 0 0 1-2-2V11a2 2 0 0 1 2-2h40a2 2 0 0 1 2 2Z"/><path d="M42.41 12.088a1 1 0 0 0-1.074.165L24 27.662 6.665 12.252A1 1 0 0 0 5 13v24a1 1 0 0 0 2 0V15.227l16.335 14.52a1 1 0 0 0 1.329 0L41 15.227V36a1 1 0 0 0 2 0V13a1 1 0 0 0-.59-.912Z"/><path d="M23.354 23.763a1 1 0 0 0 1.292 0l13-11a1 1 0 0 0-1.292-1.526L24 21.69 11.646 11.237a1 1 0 1 0-1.292 1.526Z"/></g></svg>