<svg xmlns="http://www.w3.org/2000/svg" width="64" height="64" viewBox="0 0 64 64"><g transform="translate(-2.214 -986.355)"><g fill="#e9eded" transform="translate(-55.014 -217)"><path fill-rule="evenodd" style="line-height:normal;text-indent:0;text-align:start;text-decoration-line:none;text-decoration-style:solid;text-decoration-color:#000;text-transform:none;block-progression:tb;isolation:auto;mix-blend-mode:normal" d="M82.514926 1219.3613c-.676158-.01-.676158 1.0096 0 1l2.992188 0c.676158.01.676158-1.0096 0-1zM81.514233 1217.3613c-.676158-.01-.676158 1.0096 0 1l6.993 0c.676158.01.676158-1.0096 0-1z" color="#000" font-family="sans-serif" font-weight="400" overflow="visible" white-space="normal"/><path fill-rule="evenodd" style="line-height:normal;text-indent:0;text-align:start;text-decoration-line:none;text-decoration-style:solid;text-decoration-color:#000;text-transform:none;block-progression:tb;isolation:auto;mix-blend-mode:normal" d="M83.541577 1218.3622a.50030889.50030889 0 0 1-.01367 1l1.99414 0a.50030896.50030896 0 0 1-.03516-1l-1.945312 0zM79.521352 1215.3621c-.676158-.01-.676158 1.0096 0 1l1 0c.676158.01.676158-1.0097 0-1zM82.521352 1215.3613a.50004997.50004997 0 1 0 0 1l5 0a.50004997.50004997 0 1 0 0-1l-5 0z" color="#000" font-family="sans-serif" font-weight="400" overflow="visible" white-space="normal"/><path fill-rule="evenodd" style="line-height:normal;text-indent:0;text-align:start;text-decoration-line:none;text-decoration-style:solid;text-decoration-color:#000;text-transform:none;block-progression:tb;isolation:auto;mix-blend-mode:normal" d="m 84.506421,1215.3613 a 0.50004997,0.50004997 0 1 0 0,1 l 5,0 a 0.50004997,0.50004997 0 1 0 0,-1 l -5,0 z" color="#000" font-family="sans-serif" font-weight="400" overflow="visible" white-space="normal"/><path fill-rule="evenodd" d="M83.027903 1216.3622a.50030889.50030889 0 0 1-.01367 1l1.99414 0a.50030896.50030896 0 0 1-.03516-1l-1.945312 0zM86.033763 1216.3622a.50030889.50030889 0 0 1-.01367 1l1.99414 0a.50030896.50030896 0 0 1-.03516-1l-1.945312 0zM87.507233 1219.3621c-.676158-.01-.676158 1.0096 0 1l-.000119 0c.676158.01.676158-1.0097 0-1z" color="#000" font-family="sans-serif" font-weight="400" overflow="visible" white-space="normal" style="line-height:normal;text-indent:0;text-align:start;text-decoration-line:none;text-decoration-style:solid;text-decoration-color:#000;text-transform:none;block-progression:tb;isolation:auto;mix-blend-mode:normal"/></g><g transform="translate(.572 -.43)"><g transform="scale(1.24128) rotate(45 200.974 827.79)"><path fill="#ffeb3b" fill-rule="evenodd" d="m 72.858593,974.9419 c 0,0 -5.87673,-9.33066 -3.28788,-12.45806 1.94959,-2.0924 5.30815,-1.8665 6.7584,0 2.57664,3.1452 -3.47052,12.45806 -3.47052,12.45806 z"/><path fill="#ff9800" fill-rule="evenodd" d="m 72.889113,967.7976 c 0,0 -3.68205,-4.04096 -2.06001,-6.00036 1.22151,-1.311 3.32581,-1.1695 4.23446,0 1.61439,1.9706 -2.17445,6.00036 -2.17445,6.00036 z"/></g><path fill="#e9eded" fill-rule="evenodd" d="m 54.999996,997.3622 c -21.213197,10e-6 -32.526905,16.9706 -36.062439,27.5772 3.535534,0.7071 7.778175,4.9497 8.485282,8.4853 10.606602,-3.5356 27.577165,-14.8493 27.577157,-36.0625 l 0,0"/><g transform="scale(1.24128) rotate(45 200.974 827.79)"><path fill="#ffeb3b" fill-rule="evenodd" d="m 72.858593,974.9419 c 0,0 -5.87673,-9.33066 -3.28788,-12.45806 1.94959,-2.0924 5.30815,-1.8665 6.7584,0 2.57664,3.1452 -3.47052,12.45806 -3.47052,12.45806 z"/><path fill="#ff9800" fill-rule="evenodd" d="m 72.889113,967.7976 c 0,0 -3.68205,-4.04096 -2.06001,-6.00036 1.22151,-1.311 3.32581,-1.1695 4.23446,0 1.61439,1.9706 -2.17445,6.00036 -2.17445,6.00036 z"/></g><path fill="#f44336" fill-rule="evenodd" d="M23.75055 1015.1129c-1.817886 2.9382-3.880778 6.7183-4.789036 9.8261-.725909-.2881-.700014-.7141-2.116922-.7201-1.414214-.01-3.60703 2.0404-5.410506 3.0605 1.17659-4.5006 4.056961-12.9685 6.179837-13.2206 1.416922-.4333 4.948065.2954 6.136627 1.0541zM37.25139 1028.6325c-2.885102 1.7408-6.724833 3.8695-9.834194 4.7725.286852.7264.707093.7071.716525 2.1182.0063 1.4141-2.046374 3.6035-3.069593 5.4053 4.502645-1.169 12.975283-4.0351 13.231065-6.1576.43562-1.4162-.287149-4.9486-1.043803-6.1384z"/><path fill="#263238" fill-rule="evenodd" d="m 18.663872,1026.168 c 1.904719,0.4462 3.351728,1.5889 4.623389,2.8495 1.273209,1.2591 2.367952,2.6392 2.721498,4.407 l -1.591167,0.8399 -6.482747,-6.3951 z"/><path fill="#f44336" fill-rule="evenodd" d="m 54.999476,997.36299 c -4.46528,0 -8.486206,0.75912 -12.094011,2.04536 l 10.04865,10.04865 c 1.286239,-3.6078 2.045363,-7.6287 2.045361,-12.09401 z"/><circle cx="987.028" cy="221.514" r="3.428" fill="#81d4fa" transform="rotate(75)"/><path fill="#263238" d="m 42.905465,999.40835 c -0.692662,0.24695 -1.375151,0.50656 -2.037076,0.79135 l 11.294374,11.2944 c 0.284796,-0.662 0.544405,-1.3444 0.791352,-2.0371 l -10.04865,-10.04865 z"/><path fill="#bbdefb" d="m 43.254029,1007.7844 a 3.4282374,3.4282374 0 0 0 -0.950584,-0.3887 3.4282374,3.4282374 0 0 1 0.837666,1.4827 3.4282374,3.4282374 0 0 1 -2.423828,4.1982 3.4282374,3.4282374 0 0 1 -1.694444,0.021 3.4282374,3.4282374 0 0 0 3.360528,0.9411 3.4282374,3.4282374 0 0 0 2.423828,-4.1982 3.4282374,3.4282374 0 0 0 -1.553166,-2.0559 z"/><path fill="#607d8b" style="line-height:normal;text-indent:0;text-align:start;text-decoration-line:none;text-decoration-style:solid;text-decoration-color:#000;text-transform:none;block-progression:tb;isolation:auto;mix-blend-mode:normal" d="m 44.324909,1007.8988 c -1.557158,-1.5571 -4.099102,-1.5571 -5.656264,0 -1.557163,1.5572 -1.557161,4.0992 -3e-6,5.6563 1.557158,1.5572 4.099109,1.5572 5.65627,0 1.557163,-1.5571 1.557155,-4.0991 -3e-6,-5.6563 z m -0.808039,0.8081 c 1.120462,1.1204 1.120472,2.9197 4e-6,4.0402 -1.120467,1.1204 -2.919731,1.1204 -4.040193,0 -1.120463,-1.1205 -1.120465,-2.9197 3e-6,-4.0402 1.120467,-1.1205 2.919723,-1.1205 4.040186,0 z" color="#000" font-family="sans-serif" font-weight="400" overflow="visible" white-space="normal"/><path fill="#b0bec5" fill-rule="evenodd" d="m 54.999476,997.36299 c -0.396627,0 -0.782807,0.0173 -1.172527,0.029 -0.601467,20.01291 -16.41831,30.92281 -26.850722,34.63441 0.200802,0.4722 0.354556,0.9414 0.446085,1.399 10.606602,-3.5355 27.577172,-14.8492 27.577164,-36.06241 z m -31.902669,29.61561 c -1.179112,-1.1791 -2.552662,-2.161 -3.904279,-2.7359 -0.08182,0.23 -0.180668,0.473 -0.255498,0.6975 1.554527,0.3109 3.232479,1.3247 4.699774,2.6419 -0.180696,-0.2012 -0.348082,-0.4116 -0.539998,-0.6035 z"/><path fill="#d22e2e" fill-rule="evenodd" d="m 54.999476,997.36299 c -0.396627,0 -0.782807,0.0173 -1.172527,0.029 -0.120139,3.99741 -0.855949,7.62561 -2.026026,10.91181 l 1.153192,1.1532 c 0.457395,-1.283 0.845067,-2.6204 1.158716,-4.0092 0.02111,-0.094 0.04451,-0.186 0.06491,-0.2804 0.07144,-0.329 0.133446,-0.6649 0.196112,-0.9999 0.04256,-0.2288 0.08455,-0.4576 0.122914,-0.6891 0.04871,-0.2923 0.09348,-0.5872 0.135345,-0.8839 0.04046,-0.2887 0.07664,-0.5799 0.110486,-0.8729 0.0316,-0.2715 0.06125,-0.5437 0.08701,-0.8189 0.03159,-0.3401 0.05759,-0.6846 0.0801,-1.03031 0.01533,-0.23354 0.03313,-0.46544 0.04419,-0.70158 0.02765,-0.59513 0.04557,-1.19629 0.04557,-1.80782 z"/><path fill="#455a64" fill-rule="evenodd" d="M51.800923 1008.3038c-.246595.6926-.511094 1.3711-.795495 2.0329l1.157335 1.1574c.0018 0 .0024-.01.0041-.013.282792-.6582.541741-1.3361.787209-2.0246l-1.153192-1.1532zM23.287394 1029.0171c-.142379-.1412-.29753-.2715-.444703-.4088 1.027644 1.1072 1.877068 2.3225 2.177944 3.8269l-1.592372.8411-5.488363-5.4166-.0042.01 6.481354 6.3957 1.592397-.841c-.353546-1.7678-1.448875-3.148-2.722085-4.407z"/><path fill="#f44336" fill-rule="evenodd" d="m 28.817253,1025.6889 c 0.847185,-1.1056 1.696752,-3.8187 1.696752,-3.8187 0,0 -2.711683,0.8513 -3.818072,1.6974 -3.859453,2.9514 -9.203702,11.3024 -9.203702,11.3024 0,0 8.369132,-5.3237 11.325022,-9.1811 z"/><path fill="#ffc107" fill-rule="evenodd" d="m 20.340196,1032.2294 c -0.149958,-0.1567 -0.31139,-0.3022 -0.47923,-0.4433 0.935578,1.1004 1.439663,2.4949 1.270582,3.8421 -0.442596,4.4542 -10.620506,7.0828 -13.0248516,7.6498 -0.075874,0.3029 -0.249973,0.946 -0.249973,0.946 0,0 13.4828976,-2.8665 13.9819316,-7.8887 0.182674,-1.4555 -0.413269,-2.9711 -1.498459,-4.1059 z"/><path fill="#f57c00" fill-rule="evenodd" d="m 20.392676,1032.0499 c -0.139127,-0.1455 -0.300792,-0.2718 -0.46404,-0.395 0.512349,0.6657 0.792188,1.4716 0.693296,2.2594 -0.256206,2.5786 -4.723509,3.1641 -6.395726,3.2994 -0.03505,0.3618 -0.07043,0.7665 -0.07043,0.7665 0,0 6.862003,-0.2108 7.174649,-3.3574 0.11448,-0.912 -0.257816,-1.8619 -0.937744,-2.5729 z"/><path fill="#d22e2e" fill-rule="evenodd" d="M30.514523 1021.87c0 0-.580529.2029-1.096568.3895-.322012.8922-.771211 2.0218-1.307872 2.7221-2.021866 2.6385-6.449597 5.8577-9.126097 7.6953-.851721 1.2338-1.491553 2.1931-1.491553 2.1931 0 0 8.368867-5.3239 11.324757-9.1813.847185-1.1056 1.697333-3.8187 1.697333-3.8187zM37.251372 1028.6318c-.09436.057-.206112.1204-.302454.1781.576207 1.5512.994908 4.0994.639435 5.255-.231234 1.9188-7.151587 4.4322-11.809512 5.7632-.256036.3737-.513708.748-.714012 1.1007 4.502645-1.1691 12.974849-4.0343 13.23063-6.1568.435621-1.4162-.287432-4.9504-1.044087-6.1402z"/></g><g fill="#e9eded" transform="translate(-35.014 -188)"><path fill-rule="evenodd" d="M82.514926 1219.3613c-.676158-.01-.676158 1.0096 0 1l2.992188 0c.676158.01.676158-1.0096 0-1zM81.514233 1217.3613c-.676158-.01-.676158 1.0096 0 1l6.993 0c.676158.01.676158-1.0096 0-1z" color="#000" font-family="sans-serif" font-weight="400" overflow="visible" white-space="normal" style="line-height:normal;text-indent:0;text-align:start;text-decoration-line:none;text-decoration-style:solid;text-decoration-color:#000;text-transform:none;block-progression:tb;isolation:auto;mix-blend-mode:normal"/><path fill-rule="evenodd" d="M83.541577 1218.3622a.50030889.50030889 0 0 1-.01367 1l1.99414 0a.50030896.50030896 0 0 1-.03516-1l-1.945312 0zM79.521352 1215.3621c-.676158-.01-.676158 1.0096 0 1l1 0c.676158.01.676158-1.0097 0-1zM82.521352 1215.3613a.50004997.50004997 0 1 0 0 1l5 0a.50004997.50004997 0 1 0 0-1l-5 0z" color="#000" font-family="sans-serif" font-weight="400" overflow="visible" white-space="normal" style="line-height:normal;text-indent:0;text-align:start;text-decoration-line:none;text-decoration-style:solid;text-decoration-color:#000;text-transform:none;block-progression:tb;isolation:auto;mix-blend-mode:normal"/><path fill-rule="evenodd" d="m 84.506421,1215.3613 a 0.50004997,0.50004997 0 1 0 0,1 l 5,0 a 0.50004997,0.50004997 0 1 0 0,-1 l -5,0 z" color="#000" font-family="sans-serif" font-weight="400" overflow="visible" white-space="normal" style="line-height:normal;text-indent:0;text-align:start;text-decoration-line:none;text-decoration-style:solid;text-decoration-color:#000;text-transform:none;block-progression:tb;isolation:auto;mix-blend-mode:normal"/><path fill-rule="evenodd" style="line-height:normal;text-indent:0;text-align:start;text-decoration-line:none;text-decoration-style:solid;text-decoration-color:#000;text-transform:none;block-progression:tb;isolation:auto;mix-blend-mode:normal" d="M83.027903 1216.3622a.50030889.50030889 0 0 1-.01367 1l1.99414 0a.50030896.50030896 0 0 1-.03516-1l-1.945312 0zM86.033763 1216.3622a.50030889.50030889 0 0 1-.01367 1l1.99414 0a.50030896.50030896 0 0 1-.03516-1l-1.945312 0zM87.507233 1219.3621c-.676158-.01-.676158 1.0096 0 1l-.000119 0c.676158.01.676158-1.0097 0-1z" color="#000" font-family="sans-serif" font-weight="400" overflow="visible" white-space="normal"/></g><path fill="none" stroke="#f44336" stroke-linecap="round" stroke-linejoin="round" d="M34.492889 993.86225l1.99999 0M35.492879 992.86225l.00001 2"/><path fill="none" stroke="#546e7a" stroke-linecap="round" stroke-linejoin="round" d="M20.080737 998.28145l1.41422-1.4142M20.080743 996.86725l1.414207 1.4142"/><circle cx="729.288" cy="696.049" r="1" fill="none" stroke="#ffc107" stroke-linecap="round" stroke-linejoin="round" color="#000" style="isolation:auto;mix-blend-mode:normal" overflow="visible" transform="rotate(45)"/><path fill="none" stroke="#f44336" stroke-linecap="round" stroke-linejoin="round" d="M48.238217 1037.4836l-1.732042 1M47.8722 1038.8496l-1.000008-1.732"/><path fill="none" stroke="#546e7a" stroke-linecap="round" stroke-linejoin="round" d="M59.49495 1027.4429l-1.414199 1.4142M59.494962 1028.8571l-1.414222-1.4142"/><circle cx="-312.998" cy="-973.007" r="1" fill="none" stroke="#ffc107" stroke-linecap="round" stroke-linejoin="round" color="#000" style="isolation:auto;mix-blend-mode:normal" overflow="visible" transform="rotate(-165)"/></g></svg>