<svg xmlns="http://www.w3.org/2000/svg" width="64" height="64" viewBox="0 0 64 64"><g transform="translate(0 -988.362)"><g stroke="#455a64" transform="translate(300 -185)"><path fill="#546e7a" fill-rule="evenodd" stroke-dasharray="1 1" d="M-292.71501 1192.0541l49.47893 26.6425M-243.29238 1192.0581l-49.54671 26.679"/><path fill="none" stroke-dasharray="1 1" d="m -268.00002,1176.8622 0,57.1"/><path fill="#546e7a" fill-rule="evenodd" stroke-dasharray="1 1" d="m -294.00002,1217.8622 0,-24.9688 m 1.28936,-2.3247 23.4082,-14.405 m 2.51596,-0.055 23.43522,14.4217 m 1.35126,2.3002 0,25.0938 m -1.31465,2.2465 -23.38465,14.3906 m -2.60663,0 -23.47009,-14.4432"/><circle cx="-268" cy="1175.362" r="1.5" fill="none" stroke-linecap="round" stroke-linejoin="round"/><circle cx="-268" cy="1235.362" r="1.5" fill="none" stroke-linecap="round" stroke-linejoin="round"/><circle cx="242" cy="-1191.362" r="1.5" fill="none" stroke-linecap="round" stroke-linejoin="round" transform="scale(-1)"/><circle cx="294" cy="-1191.362" r="1.5" fill="none" stroke-linecap="round" stroke-linejoin="round" transform="scale(-1)"/><circle cx="242" cy="-1219.362" r="1.5" fill="none" stroke-linecap="round" stroke-linejoin="round" transform="scale(-1)"/><circle cx="294" cy="-1219.362" r="1.5" fill="none" stroke-linecap="round" stroke-linejoin="round" transform="scale(-1)"/></g><path fill="#263238" d="m 12.636376,1019.3622 8.727248,0 c 2.014552,0 3.636376,1.6219 3.636376,3.6363 l 0,10.3637 -16,0 0,-10.3637 c 0,-2.0144 1.621824,-3.6363 3.636376,-3.6363 z"/><circle cx="18" cy="1013.362" r="5" fill="#ffc107"/><circle cx="47" cy="1013.362" r="5" fill="#ffc107"/><path fill="#263238" d="m 42.636376,1019.3622 8.727248,0 c 2.014552,0 3.636376,1.6219 3.636376,3.6363 l 0,10.3637 -16,0 0,-10.3637 c 0,-2.0144 1.621824,-3.6363 3.636376,-3.6363 z"/><circle cx="32" cy="1009.362" r="6" fill="#ffc107"/><path fill="#455a64" d="M 21.224609,31 C 21.081239,31.491647 21,32.009983 21,32.546875 L 21,45 23,45 23,32.546875 C 23,32.177431 23.0706,31.82916 23.171875,31.496094 22.637742,31.188569 22.026222,31 21.363281,31 l -0.138672,0 z m 21.41211,0 c -0.662941,0 -1.274461,0.188569 -1.808594,0.496094 C 40.929398,31.82916 41,32.177431 41,32.546875 L 41,45 43,45 43,32.546875 C 43,32.009983 42.918761,31.491647 42.775391,31 l -0.138672,0 z" color="#000" font-family="sans-serif" font-weight="400" overflow="visible" transform="translate(0 988.362)" white-space="normal" style="line-height:normal;text-indent:0;text-align:start;text-decoration-line:none;text-decoration-style:solid;text-decoration-color:#000;text-transform:none;block-progression:tb;isolation:auto;mix-blend-mode:normal"/><path fill="#263238" d="m 26.54547,1016.3622 10.90906,0 c 2.51819,0 4.54547,2.0272 4.54547,4.5454 l 0,14.4546 -20,0 0,-14.4546 c 0,-2.5182 2.02728,-4.5454 4.54547,-4.5454 z"/><rect width="1" height="13" x="26" y="1022.362" fill="#455a64" rx="0" ry="0"/><rect width="1" height="13" x="37" y="1022.362" fill="#455a64" rx="0" ry="0"/><rect width="1" height="9" x="12" y="1024.362" fill="#455a64" rx="0" ry="0"/><rect width="1" height="9" x="51" y="1024.362" fill="#455a64" rx="0" ry="0"/></g></svg>